<svg xmlns="http://www.w3.org/2000/svg" viewBox="0 0 185.49 47.4"><defs><style>.cls-1{fill:#fff;}</style></defs><g id="Layer_2" data-name="Layer 2"><g id="Layer_1-2" data-name="Layer 1"><polygon class="cls-1" points="163.4 42.33 165.34 42.33 165.03 38.16 163.4 42.33"/><path class="cls-1" d="M122.88,6.13H133q3.75,0,5.63,1.64t1.88,5.11a13.91,13.91,0,0,1-.21,2.29,9.67,9.67,0,0,1-1.13,3.5,7.67,7.67,0,0,1-1.65,2A15,15,0,0,1,135.67,22l2.88,10h-6.84l-2.19-8.9h-2.58L125.52,32h-6.75Zm7.71,11.58a2.76,2.76,0,0,0,2.12-.66,4.34,4.34,0,0,0,.84-2.26,4.67,4.67,0,0,0,.07-.94,1.63,1.63,0,0,0-.45-1.25,2.19,2.19,0,0,0-1.5-.42h-3l-.87,5.53Z"/><path class="cls-1" d="M143.65,30.21q-1.54-2-1.55-6.28a42.2,42.2,0,0,1,.63-6.22q.93-6,3.82-8.9a10.44,10.44,0,0,1,7.72-2.88,34.78,34.78,0,0,1,5.26.33,25.39,25.39,0,0,1,3.95.92l-.83,5.28a41.44,41.44,0,0,0-7.51-.52,6.22,6.22,0,0,0-3.1.63,4,4,0,0,0-1.67,2.12,22,22,0,0,0-1,4.48,28,28,0,0,0-.42,4.1c0,1.79.78,2.68,2.33,2.68.7,0,1.46,0,2.28-.1a15.68,15.68,0,0,0,1.86-.25l.52-3.34h-3.58l.87-5.35,1.29-.1c1.78-.16,3.27-.25,4.48-.25,1.81,0,3.25,0,4.31.07L160.84,32h-5.08l-.62-1.7a12.67,12.67,0,0,1-3,1.3,11.3,11.3,0,0,1-3.28.61Q145.2,32.17,143.65,30.21Z"/><path class="cls-1" d="M167,31.09a4.06,4.06,0,0,1-1.82-3.82,9.36,9.36,0,0,1,.1-1.32l2.12-13.31q1-6.51,7.55-6.51,4.41,0,10.57.53l-.91,5.7H176a2,2,0,0,0-1.5.47,2.76,2.76,0,0,0-.62,1.51L173.6,16l8.55.35-.84,5.35-8.69.35-.31,2a2.72,2.72,0,0,0,0,.45c0,.9.54,1.36,1.63,1.36h8.55l-.9,5.7c-2.14.21-4,.36-5.51.47s-3.18.15-4.92.15A8,8,0,0,1,167,31.09Z"/><path class="cls-1" d="M25.52,6.13H35.67q3.75,0,5.63,1.64t1.88,5.11A13.91,13.91,0,0,1,43,15.17a9.67,9.67,0,0,1-1.13,3.5,7.67,7.67,0,0,1-1.65,2A14.27,14.27,0,0,1,38.31,22L41.2,32H34.35l-2.19-8.9H29.58L28.16,32H21.41Zm7.71,11.58a2.8,2.8,0,0,0,2.13-.66,4.43,4.43,0,0,0,.83-2.26,4.67,4.67,0,0,0,.07-.94,1.63,1.63,0,0,0-.45-1.25,2.17,2.17,0,0,0-1.5-.42h-3l-.87,5.53Z"/><path class="cls-1" d="M123.82,0H78.93a7.75,7.75,0,0,0-7.65,6.54l-.88,5.57a8,8,0,0,0,.77,5A7.73,7.73,0,0,0,78,21.25H85.6a1.16,1.16,0,0,1,.88.4,1.18,1.18,0,0,1,.29.92L86,29.11a1.17,1.17,0,0,1-1.17,1H68.05a14.34,14.34,0,0,0-2.85.28L27.41,36.71H84.79a7.74,7.74,0,0,0,7.69-6.79l.79-6.4a7.86,7.86,0,0,0-.39-3.76,7.76,7.76,0,0,0-7.28-5.08H78a1.18,1.18,0,0,1-1.16-1.36l.91-5.74a1.16,1.16,0,0,1,1.16-1H92.19a14.38,14.38,0,0,0,3.14-.34Z"/><path class="cls-1" d="M180.32,39.3l.45-2.81h-6.12l.29-1.81-14,0H154.1a4,4,0,0,0-3.34,1.67,8.72,8.72,0,0,0-1.6,4.14,17.6,17.6,0,0,0-.33,2.74,5,5,0,0,0,.8,3.23,3.09,3.09,0,0,0,2.54,1H172.9l.36-2.25h6.13l.45-2.82h-6.12l.48-3ZM157.13,46a3.76,3.76,0,0,1-2.4.65,5.54,5.54,0,0,1-1-.09,3.91,3.91,0,0,1-.83-.22l.37-2.26h.93a1.31,1.31,0,0,0,.85-.22,1.06,1.06,0,0,0,.34-.68l1.19-7.46h2.83l-1.29,8.08A3.45,3.45,0,0,1,157.13,46Zm8.63.56-.16-1.72h-3.25l-.7,1.72h-2.9l4.93-10.84h3.53l1.48,10.84Z"/><path class="cls-1" d="M20.09,7.84a7.81,7.81,0,0,0-5.35-1.71H4.1L0,32H6.74L8,24.11a10.25,10.25,0,0,0,2.31.54,21.23,21.23,0,0,0,3.07.22,7.81,7.81,0,0,0,5.32-2q2.3-2,3-6.31A24.51,24.51,0,0,0,22,13.71Q22,9.54,20.09,7.84ZM15,15.8A4.44,4.44,0,0,1,14.15,18a2.1,2.1,0,0,1-1.74.86H8.83l1-6.64h3.55a1.61,1.61,0,0,1,1.32.51,2.63,2.63,0,0,1,.42,1.68A8.88,8.88,0,0,1,15,15.8Z"/><path class="cls-1" d="M110,20.84a12.38,12.38,0,0,1-.84,3.22,3.42,3.42,0,0,1-1.3,1.59,3.84,3.84,0,0,1-2,.47,3.33,3.33,0,0,1-2.33-.66,2.63,2.63,0,0,1-.7-2,9.49,9.49,0,0,1,.14-1.41q.14-.86.18-1.2l2.17-13.71-7,1.54L96.49,19.8A30,30,0,0,0,96,24q0,4.2,2.17,6.17t6.62,2a17.6,17.6,0,0,0,5.84-.8,7.38,7.38,0,0,0,3.74-3,16.3,16.3,0,0,0,2.14-6.47l2.5-15.75h-6.74Z"/><path class="cls-1" d="M47.2,30.39l17.47-2.9.16,0A22,22,0,0,0,67,20.28a34.27,34.27,0,0,0,.52-5.42,10.8,10.8,0,0,0-1.18-5.55,6,6,0,0,0-3.18-2.67,14.62,14.62,0,0,0-4.92-.71A16.7,16.7,0,0,0,51.64,7a8.61,8.61,0,0,0-4.07,3.75,22.42,22.42,0,0,0-2.27,7.34,33.76,33.76,0,0,0-.52,5.52,10.13,10.13,0,0,0,1.14,5.25A6,6,0,0,0,47.2,30.39ZM52,19a21.73,21.73,0,0,1,1-4.31,4.14,4.14,0,0,1,1.58-2.11A5.11,5.11,0,0,1,57.29,12a4.59,4.59,0,0,1,2.7.61,2.87,2.87,0,0,1,.78,2.35,32.79,32.79,0,0,1-.49,4.48,19.16,19.16,0,0,1-.94,3.81,4.69,4.69,0,0,1-1.56,2.14,4.55,4.55,0,0,1-2.68.73,4.7,4.7,0,0,1-2.78-.61,2.59,2.59,0,0,1-.8-2.17A28.43,28.43,0,0,1,52,19Z"/></g></g></svg>